<?xml version="1.0" standalone="no"?>
<!DOCTYPE svg PUBLIC "-//W3C//DTD SVG 20010904//EN"
 "http://www.w3.org/TR/2001/REC-SVG-20010904/DTD/svg10.dtd">
<svg version="1.0" xmlns="http://www.w3.org/2000/svg"
 width="2143.000000pt" height="2143.000000pt" viewBox="0 0 2143.000000 2143.000000"
 preserveAspectRatio="xMidYMid meet">
<metadata>
Created by potrace 1.11, written by Peter Selinger 2001-2013
</metadata>
<g transform="translate(0.000000,2143.000000) scale(0.100000,-0.100000)"
fill="#000000" stroke="none">
<path d="M13520 18681 c0 -17 18 -21 24 -6 3 9 0 15 -9 15 -8 0 -15 -4 -15 -9z"/>
<path d="M5635 18171 c-2 -4 -27 -8 -57 -9 -29 -1 -64 -4 -78 -7 -14 -3 -43
-8 -65 -10 -126 -16 -318 -69 -453 -126 -23 -10 -43 -18 -45 -17 -1 0 -26 -14
-55 -31 -29 -17 -55 -31 -58 -31 -2 0 -30 -18 -62 -39 -141 -98 -223 -203
-282 -366 -36 -96 -67 -139 -139 -186 -36 -23 -93 -61 -126 -82 -77 -51 -265
-240 -265 -266 0 -5 -4 -11 -8 -13 -14 -6 -116 -178 -105 -178 3 0 0 -8 -9
-17 -11 -15 -38 -88 -54 -148 -24 -90 -37 -262 -22 -271 5 -3 6 -9 3 -14 -10
-16 36 -166 76 -249 72 -148 192 -291 244 -291 43 0 52 26 58 164 4 116 8 134
34 184 36 71 88 104 208 130 56 12 192 7 222 -8 55 -29 96 -88 195 -287 56
-111 109 -211 119 -222 11 -11 19 -23 19 -26 0 -3 31 -52 68 -108 84 -124 118
-186 139 -246 18 -53 25 -189 12 -253 -18 -91 -28 -131 -52 -213 -11 -38 -21
-74 -23 -80 -1 -5 -9 -35 -18 -65 -10 -30 -24 -80 -33 -110 -9 -30 -21 -68
-27 -85 -6 -16 -11 -34 -12 -40 -1 -5 -7 -30 -15 -55 -7 -25 -13 -49 -15 -55
-1 -5 -14 -57 -28 -115 -27 -106 -54 -224 -62 -270 -2 -14 -9 -47 -14 -75 -5
-27 -12 -68 -15 -90 -3 -22 -7 -51 -9 -65 -36 -205 -37 -692 -2 -880 3 -14 7
-43 10 -65 8 -68 17 -116 38 -214 11 -51 21 -102 23 -112 18 -95 137 -487 170
-564 7 -16 16 -41 20 -55 8 -26 102 -262 115 -290 4 -8 12 -26 18 -40 38 -90
184 -389 239 -490 17 -30 45 -82 63 -115 18 -33 39 -67 46 -76 8 -8 14 -18 14
-22 0 -10 157 -264 216 -350 30 -43 54 -82 54 -87 0 -5 4 -10 8 -12 4 -2 33
-39 63 -83 29 -44 60 -86 67 -94 7 -7 21 -26 30 -40 9 -14 24 -35 34 -46 9
-11 53 -67 99 -125 84 -107 237 -289 274 -325 11 -11 39 -45 62 -75 23 -30 53
-67 65 -81 13 -15 34 -41 48 -60 14 -18 45 -58 70 -88 56 -69 171 -218 185
-239 11 -17 21 -31 45 -59 8 -9 24 -31 36 -48 11 -16 50 -73 86 -126 143 -209
295 -488 371 -679 14 -36 31 -78 38 -95 7 -16 13 -32 14 -35 20 -68 30 -97 36
-105 3 -5 15 -37 24 -70 22 -73 23 -74 29 -103 3 -12 7 -26 10 -30 4 -7 57
-205 71 -266 3 -11 9 -39 14 -61 13 -51 30 -132 37 -169 3 -16 7 -32 9 -36 2
-4 7 -22 10 -41 3 -19 14 -76 25 -126 11 -51 19 -96 18 -100 -1 -5 3 -26 10
-48 10 -39 19 -83 26 -135 4 -28 9 -52 38 -200 25 -129 25 -130 38 -210 12
-67 17 -91 44 -195 9 -34 17 -74 18 -90 1 -17 6 -36 11 -43 5 -6 6 -12 3 -12
-4 0 -2 -8 3 -18 6 -11 12 -30 15 -43 9 -46 97 -326 117 -374 6 -16 13 -36 15
-43 1 -8 6 -21 10 -30 4 -9 9 -26 11 -37 2 -11 12 -42 22 -70 15 -42 33 -108
45 -166 2 -8 5 -21 8 -29 20 -58 63 -231 60 -242 -1 -5 3 -8 8 -8 5 0 9 -3 8
-7 -2 -5 7 -31 20 -60 18 -42 28 -53 53 -58 26 -6 29 -10 24 -33 -3 -15 -7
-41 -9 -59 -3 -18 -7 -40 -10 -50 -3 -10 -7 -30 -10 -45 -3 -15 -9 -42 -15
-60 -40 -132 -57 -178 -63 -178 -5 0 -8 -7 -8 -15 0 -22 -56 -81 -103 -107
-53 -30 -181 -62 -287 -73 -30 -3 -66 -7 -80 -9 -40 -7 -202 -21 -355 -31
-138 -9 -292 -22 -380 -31 -72 -7 -99 -11 -230 -29 -16 -3 -49 -9 -73 -13 -62
-13 -191 -7 -235 11 -20 9 -41 16 -45 17 -4 0 -36 10 -72 21 -36 11 -76 23
-90 25 -14 2 -36 7 -50 10 -66 17 -191 20 -272 8 -29 -4 -56 -8 -60 -8 -3 -1
-10 -4 -14 -8 -4 -5 -14 -8 -21 -8 -8 0 -30 -12 -49 -26 -19 -15 -34 -23 -34
-18 0 19 -80 -102 -98 -149 -31 -79 -35 -104 -37 -207 -2 -117 24 -206 62
-213 40 -8 53 12 59 91 10 129 70 224 176 278 125 63 231 38 465 -109 21 -13
56 -30 77 -37 l40 -13 -40 -15 c-52 -21 -135 -76 -154 -103 -8 -12 -21 -28
-28 -35 -7 -8 -11 -14 -8 -14 3 0 -4 -21 -15 -47 -32 -75 -26 -190 14 -266 40
-77 98 -127 146 -127 40 0 60 21 55 55 -36 209 -17 257 121 295 52 14 106 16
172 5 21 -3 59 -10 84 -14 124 -21 291 23 669 174 126 51 508 168 589 181 18
3 43 8 55 10 91 19 204 23 291 11 33 -5 67 -9 75 -9 13 0 64 -10 125 -24 11
-3 29 -7 40 -9 11 -3 79 -18 150 -35 197 -47 308 -72 330 -76 11 -2 29 -5 40
-8 11 -2 52 -7 90 -11 95 -9 148 6 196 56 54 56 108 77 194 74 128 -5 252 -64
290 -138 30 -57 36 -90 35 -194 0 -79 4 -105 16 -117 18 -19 17 -19 46 -5 13
5 34 33 47 62 28 60 53 137 44 137 -3 0 1 7 8 17 21 24 20 250 -1 263 -8 5
-12 10 -8 10 13 0 -15 65 -50 114 -67 96 -133 140 -259 177 -56 16 -91 18
-198 15 -71 -2 -141 -7 -155 -10 -13 -3 -40 -8 -60 -11 -20 -3 -47 -8 -60 -10
-26 -5 -60 -12 -110 -20 -131 -23 -257 -20 -373 6 -57 13 -127 73 -127 108 0
12 -4 19 -10 16 -6 -4 -10 13 -11 42 0 26 -2 82 -2 123 -1 41 0 89 3 105 6 30
6 29 32 -25 15 -30 28 -62 30 -70 2 -8 5 -17 8 -20 3 -3 19 -31 35 -63 55
-108 117 -105 130 5 3 29 8 82 10 118 3 36 6 70 7 77 3 20 26 2 43 -33 9 -19
20 -34 25 -34 6 0 10 -5 10 -11 0 -17 99 -178 138 -226 42 -50 74 -59 108 -29
38 33 49 124 53 426 l1 55 51 -85 c28 -46 61 -91 72 -100 69 -47 119 5 143
147 2 13 6 33 8 45 8 43 15 103 18 141 1 20 6 37 10 37 4 0 8 11 8 24 0 59 12
58 47 -3 35 -62 56 -81 91 -81 37 0 68 61 78 150 3 25 8 56 11 70 9 36 11 50
18 100 13 96 34 210 42 223 2 4 19 -20 37 -54 38 -72 72 -96 103 -74 31 22 36
66 39 350 3 364 7 475 16 475 5 0 7 3 6 7 -1 5 1 23 5 41 5 26 11 32 31 32 14
0 28 -5 31 -10 10 -16 64 -8 82 12 20 23 13 163 -17 328 -11 63 -23 133 -26
155 -3 22 -7 45 -9 52 -2 6 -7 55 -11 107 -8 109 -5 112 61 71 46 -29 87 -32
106 -9 21 26 12 139 -16 194 -12 26 -28 80 -22 80 1 0 68 -23 147 -50 80 -28
153 -53 163 -55 20 -5 473 -152 497 -162 8 -4 17 -7 20 -8 3 0 50 -16 105 -35
55 -19 102 -35 105 -35 3 -1 16 -6 30 -12 14 -5 61 -22 105 -37 44 -15 94 -34
110 -41 17 -7 42 -17 58 -20 15 -4 30 -11 33 -16 3 -5 12 -9 19 -9 8 0 39 -11
69 -25 30 -14 57 -25 60 -25 15 0 405 -190 471 -229 17 -10 50 -29 75 -43 114
-64 187 -109 340 -212 91 -61 172 -116 180 -123 8 -7 62 -47 120 -89 125 -92
116 -86 161 -124 20 -16 41 -30 47 -30 6 0 12 -4 14 -9 2 -5 53 -48 113 -96
159 -124 177 -139 189 -150 6 -6 29 -24 51 -40 22 -17 46 -35 53 -42 7 -7 63
-52 125 -100 62 -48 118 -93 125 -100 7 -7 17 -13 20 -13 4 0 18 -10 32 -23
14 -12 66 -52 115 -89 50 -37 95 -71 100 -76 6 -4 26 -19 45 -32 19 -14 40
-30 48 -37 7 -7 46 -36 87 -64 41 -28 75 -55 75 -60 0 -5 5 -9 10 -9 6 0 52
-30 103 -67 51 -36 121 -87 157 -112 36 -25 74 -53 84 -63 11 -10 25 -18 32
-18 7 0 14 -4 16 -8 2 -4 59 -46 127 -92 68 -47 131 -92 140 -100 9 -8 29 -21
44 -29 15 -8 36 -22 46 -33 11 -10 24 -18 30 -18 5 0 11 -4 13 -8 2 -5 44 -36
93 -69 50 -33 155 -106 235 -162 80 -55 153 -107 164 -114 10 -6 37 -26 60
-42 22 -17 75 -53 116 -80 41 -28 77 -52 80 -55 6 -6 86 -59 112 -75 10 -5 56
-33 102 -62 87 -53 256 -137 316 -158 3 -1 12 -5 20 -8 49 -20 145 -41 250
-53 116 -14 275 2 420 43 129 37 268 110 329 172 37 39 51 84 51 166 0 91 -22
161 -91 295 -60 115 -53 103 -163 270 -102 153 -138 205 -226 324 -24 34 -47
63 -50 66 -3 3 -17 21 -30 40 -14 19 -30 42 -37 50 -6 8 -45 58 -87 111 -74
96 -101 131 -121 153 -6 6 -22 27 -35 46 -13 19 -29 40 -35 46 -5 6 -46 55
-90 109 -44 54 -89 107 -100 119 -11 12 -38 44 -60 71 -22 28 -44 55 -50 61
-5 6 -32 37 -60 69 -27 32 -59 68 -70 81 -20 22 -98 111 -132 150 -18 21 -148
165 -191 213 -204 223 -634 658 -872 881 -206 193 -225 211 -408 379 -51 47
-90 86 -89 88 2 1 32 -9 68 -23 128 -51 475 -173 539 -190 8 -2 53 -15 100
-29 47 -15 92 -28 100 -30 8 -2 27 -8 43 -14 15 -6 27 -8 27 -5 0 4 7 0 17 -7
9 -8 18 -13 20 -11 5 4 49 -7 118 -28 33 -10 72 -21 85 -24 14 -3 75 -19 135
-36 61 -16 119 -32 130 -35 11 -3 101 -25 200 -51 237 -60 426 -106 485 -118
14 -3 54 -12 90 -21 35 -9 80 -18 100 -21 19 -3 38 -8 41 -10 3 -2 21 -6 40
-9 68 -13 135 -25 160 -31 81 -16 239 -29 278 -22 67 11 88 52 55 107 -16 27
-221 171 -243 171 -6 0 -11 5 -11 12 0 6 -3 8 -6 5 -4 -3 -18 3 -32 13 -13 11
-29 20 -34 20 -4 0 -25 10 -46 23 -20 13 -82 48 -137 77 -55 30 -127 68 -160
86 -33 18 -87 47 -120 65 -33 17 -84 44 -112 60 -56 31 -148 81 -198 108 -16
9 -32 18 -35 21 -3 3 -27 16 -55 29 -27 14 -61 32 -75 41 -14 10 -52 32 -85
50 -83 46 -118 66 -235 135 -56 33 -120 71 -143 84 -23 13 -68 41 -100 63 -32
21 -60 38 -62 38 -7 0 -252 159 -343 222 -45 32 -87 58 -92 58 -4 0 -10 3 -12
8 -2 4 -52 43 -113 87 -113 81 -327 248 -357 278 -9 9 -19 17 -22 17 -3 0 -14
8 -24 17 -10 10 -47 43 -82 73 -34 30 -68 59 -74 65 -6 5 -52 47 -103 93 -191
174 -462 455 -643 667 -47 55 -87 102 -90 105 -3 3 -25 30 -50 60 -24 30 -48
57 -52 58 -5 2 -6 8 -2 13 3 5 1 9 -4 9 -5 0 -28 24 -50 53 -22 30 -47 61 -56
70 -9 8 -16 18 -16 22 0 4 -7 14 -16 23 -9 9 -42 50 -73 91 -31 42 -59 78 -63
79 -5 2 -8 8 -8 13 0 8 -18 33 -46 63 -10 11 -91 126 -109 155 -5 9 -13 18
-16 21 -3 3 -47 64 -98 135 -50 72 -98 138 -106 148 -8 9 -15 20 -15 24 0 3
-12 22 -27 42 -16 20 -32 44 -38 53 -14 26 -289 432 -296 438 -5 4 -108 157
-134 198 -10 17 -85 129 -246 367 -52 77 -97 142 -101 145 -4 3 -26 35 -50 70
-24 36 -69 100 -100 143 -32 42 -58 81 -58 86 0 5 -4 11 -8 13 -5 2 -48 56
-96 120 -109 147 -293 377 -366 458 -14 15 -50 56 -80 91 -125 142 -418 442
-576 589 -172 159 -282 260 -314 286 -19 16 -54 47 -77 69 -23 22 -59 54 -80
72 -61 52 -76 65 -153 133 -40 36 -82 73 -94 83 -53 46 -142 124 -161 142 -12
11 -37 33 -56 49 -37 31 -176 157 -276 251 -109 101 -303 296 -400 401 -78 84
-125 138 -242 279 -9 11 -27 36 -41 55 -13 19 -27 37 -30 40 -3 3 -31 41 -61
85 -30 44 -57 82 -61 83 -5 2 -8 7 -8 12 0 4 -19 39 -42 76 -48 79 -155 293
-193 386 -40 99 -42 102 -53 128 -6 14 -30 75 -52 135 -48 127 -54 141 -68
175 -5 14 -27 68 -47 120 -183 473 -385 765 -710 1025 -27 22 -51 43 -53 48
-2 4 -8 7 -14 7 -5 0 -29 16 -52 35 -24 19 -46 35 -49 35 -4 0 -97 59 -122 78
-20 15 -252 131 -315 157 -120 51 -231 90 -340 119 -18 5 -138 35 -160 40 -8
2 -49 9 -90 16 -41 6 -86 14 -100 16 -14 3 -47 7 -75 10 -27 2 -70 7 -95 11
-62 8 -380 11 -385 4z m1319 -14281 c-61 -33 -122 -60 -135 -61 -29 -1 -149
33 -149 42 0 3 33 12 73 19 89 15 91 16 150 29 26 6 64 14 85 17 20 3 39 8 41
10 2 2 14 4 25 4 12 0 -29 -27 -90 -60z"/>
</g>
</svg>
